{
    "asset" : {
        "generator" : "Khronos glTF Blender I/O v1.4.40",
        "version" : "2.0"
    },
    "scene" : 0,
    "scenes" : [
        {
            "name" : "Scene",
            "nodes" : [
                3
            ]
        }
    ],
    "nodes" : [
        {
            "mesh" : 0,
            "name" : "shere",
            "translation" : [
                16.617828369140625,
                19.488149642944336,
                -6.775192737579346
            ]
        },
        {
            "mesh" : 1,
            "name" : "symbol",
            "rotation" : [
                -0.7071068286895752,
                0,
                0,
                0.7071067094802856
            ],
            "translation" : [
                0,
                53.91925048828125,
                0
            ]
        },
        {
            "children" : [
                0,
                1
            ],
            "name" : "symbol.001",
            "rotation" : [
                0,
                0.9807853102684021,
                0,
                0.1950901299715042
            ],
            "translation" : [
                21.712196350097656,
                0,
                -8.993396759033203
            ]
        },
        {
            "children" : [
                2
            ],
            "name" : "symbol.002",
            "scale" : [
                0.02539999969303608,
                0.02539999969303608,
                0.02539999969303608
            ]
        }
    ],
    "animations" : [
        {
            "channels" : [
                {
                    "sampler" : 0,
                    "target" : {
                        "node" : 0,
                        "path" : "translation"
                    }
                },
                {
                    "sampler" : 1,
                    "target" : {
                        "node" : 0,
                        "path" : "rotation"
                    }
                },
                {
                    "sampler" : 2,
                    "target" : {
                        "node" : 0,
                        "path" : "scale"
                    }
                }
            ],
            "name" : "shereAction",
            "samplers" : [
                {
                    "input" : 6,
                    "interpolation" : "LINEAR",
                    "output" : 7
                },
                {
                    "input" : 6,
                    "interpolation" : "LINEAR",
                    "output" : 8
                },
                {
                    "input" : 6,
                    "interpolation" : "LINEAR",
                    "output" : 9
                }
            ]
        },
        {
            "channels" : [
                {
                    "sampler" : 0,
                    "target" : {
                        "node" : 1,
                        "path" : "translation"
                    }
                },
                {
                    "sampler" : 1,
                    "target" : {
                        "node" : 1,
                        "path" : "rotation"
                    }
                },
                {
                    "sampler" : 2,
                    "target" : {
                        "node" : 1,
                        "path" : "scale"
                    }
                }
            ],
            "name" : "symbolAction",
            "samplers" : [
                {
                    "input" : 6,
                    "interpolation" : "LINEAR",
                    "output" : 10
                },
                {
                    "input" : 6,
                    "interpolation" : "LINEAR",
                    "output" : 11
                },
                {
                    "input" : 6,
                    "interpolation" : "LINEAR",
                    "output" : 12
                }
            ]
        }
    ],
    "materials" : [
        {
            "doubleSided" : true,
            "name" : "Mati\u00e8re21",
            "pbrMetallicRoughness" : {
                "baseColorFactor" : [
                    0,
                    0,
                    0,
                    0.5019607543945312
                ],
                "metallicFactor" : 0,
                "roughnessFactor" : 0.5
            }
        }
    ],
    "meshes" : [
        {
            "name" : "sphere_mesh",
            "primitives" : [
                {
                    "attributes" : {
                        "POSITION" : 0,
                        "NORMAL" : 1
                    },
                    "indices" : 2,
                    "material" : 0
                }
            ]
        },
        {
            "name" : "symbol_mesh",
            "primitives" : [
                {
                    "attributes" : {
                        "POSITION" : 3,
                        "NORMAL" : 4
                    },
                    "indices" : 5
                }
            ]
        }
    ],
    "accessors" : [
        {
            "bufferView" : 0,
            "componentType" : 5126,
            "count" : 396,
            "max" : [
                9.80123233795166,
                19.706554412841797,
                -0.013958625495433807
            ],
            "min" : [
                -9.74661636352539,
                0.005560522899031639,
                -19.677675247192383
            ],
            "type" : "VEC3"
        },
        {
            "bufferView" : 1,
            "componentType" : 5126,
            "count" : 396,
            "type" : "VEC3"
        },
        {
            "bufferView" : 2,
            "componentType" : 5123,
            "count" : 396,
            "type" : "SCALAR"
        },
        {
            "bufferView" : 3,
            "componentType" : 5126,
            "count" : 218,
            "max" : [
                33.235694885253906,
                33.23560333251953,
                0.020360281690955162
            ],
            "min" : [
                0,
                0,
                -49.01752471923828
            ],
            "type" : "VEC3"
        },
        {
            "bufferView" : 4,
            "componentType" : 5126,
            "count" : 218,
            "type" : "VEC3"
        },
        {
            "bufferView" : 5,
            "componentType" : 5123,
            "count" : 1158,
            "type" : "SCALAR"
        },
        {
            "bufferView" : 6,
            "componentType" : 5126,
            "count" : 40,
            "max" : [
                1.6666666666666667
            ],
            "min" : [
                0.041666666666666664
            ],
            "type" : "SCALAR"
        },
        {
            "bufferView" : 7,
            "componentType" : 5126,
            "count" : 40,
            "type" : "VEC3"
        },
        {
            "bufferView" : 8,
            "componentType" : 5126,
            "count" : 40,
            "type" : "VEC4"
        },
        {
            "bufferView" : 9,
            "componentType" : 5126,
            "count" : 40,
            "type" : "VEC3"
        },
        {
            "bufferView" : 10,
            "componentType" : 5126,
            "count" : 40,
            "type" : "VEC3"
        },
        {
            "bufferView" : 11,
            "componentType" : 5126,
            "count" : 40,
            "type" : "VEC4"
        },
        {
            "bufferView" : 12,
            "componentType" : 5126,
            "count" : 40,
            "type" : "VEC3"
        }
    ],
    "bufferViews" : [
        {
            "buffer" : 0,
            "byteLength" : 4752,
            "byteOffset" : 0
        },
        {
            "buffer" : 0,
            "byteLength" : 4752,
            "byteOffset" : 4752
        },
        {
            "buffer" : 0,
            "byteLength" : 792,
            "byteOffset" : 9504
        },
        {
            "buffer" : 0,
            "byteLength" : 2616,
            "byteOffset" : 10296
        },
        {
            "buffer" : 0,
            "byteLength" : 2616,
            "byteOffset" : 12912
        },
        {
            "buffer" : 0,
            "byteLength" : 2316,
            "byteOffset" : 15528
        },
        {
            "buffer" : 0,
            "byteLength" : 160,
            "byteOffset" : 17844
        },
        {
            "buffer" : 0,
            "byteLength" : 480,
            "byteOffset" : 18004
        },
        {
            "buffer" : 0,
            "byteLength" : 640,
            "byteOffset" : 18484
        },
        {
            "buffer" : 0,
            "byteLength" : 480,
            "byteOffset" : 19124
        },
        {
            "buffer" : 0,
            "byteLength" : 480,
            "byteOffset" : 19604
        },
        {
            "buffer" : 0,
            "byteLength" : 640,
            "byteOffset" : 20084
        },
        {
            "buffer" : 0,
            "byteLength" : 480,
            "byteOffset" : 20724
        }
    ],
    "buffers" : [
        {
            "byteLength" : 21204,
            "uri" : "symbol-test-2separate.bin"
        }
    ]
}
